<svg width="178" height="86" viewBox="0 0 178 86" fill="none" xmlns="http://www.w3.org/2000/svg">
<path d="M34.4482 15.3594L34.0088 15.7012L33.3984 16.751L31.4453 17.5078L30.542 18.0938C30.3467 18.1914 30.1514 18.2402 29.9561 18.2402H29.9072L28.4912 17.9961L25.1953 17.8984L22.9004 17.6543L20.7031 17.8008L19.8486 17.6543L19.5068 17.7031L19.2383 18.8506L19.3604 19.4609L19.4092 20.2422V20.4619L19.1406 21.6094L19.1895 22.4883L19.0918 23.2451L19.2383 23.8066C18.8477 23.8392 18.5954 23.9043 18.4814 24.002C18.3838 24.0996 18.3268 24.3356 18.3105 24.71C18.8477 24.7913 19.1406 24.9378 19.1895 25.1494L19.0918 26.9072V28.0547C19.0918 28.543 18.7744 29.0719 18.1396 29.6416C18.221 29.7881 18.2943 29.9102 18.3594 30.0078C18.4245 30.0892 18.5221 30.1543 18.6523 30.2031C18.7988 30.252 18.9453 30.2845 19.0918 30.3008L19.2383 30.5938C19.0267 30.724 18.8802 30.8542 18.7988 30.9844C18.7337 31.1146 18.6849 31.3343 18.6523 31.6436L19.2383 32.3027V33.499V34.5488C19.2383 34.8092 19.1243 35.0615 18.8965 35.3057L19.1406 35.8916L19.043 36.5508L19.2383 37.4541L19.1406 38.1621L19.1895 38.748L19.2383 39.749C18.6198 40.0094 18.3105 40.3757 18.3105 40.8477C18.3105 41.2383 18.6035 41.5882 19.1895 41.8975L19.5557 45.999L19.1895 46.292L18.75 46.5117L17.4561 47.6104L16.9922 47.6592H16.6504L16.3574 48.001C16.1621 47.8708 16.0075 47.8057 15.8936 47.8057C15.8936 47.8057 15.7959 47.8382 15.6006 47.9033L15.3076 47.2441C15.3402 47.1465 15.3564 47.0651 15.3564 47C15.3727 46.9512 15.389 46.9023 15.4053 46.8535L15.6006 45.7549L15.4053 44.4609L15.6006 42.5566L15.7471 39.749L15.9912 37.6494V37.0879L16.4551 36.502L15.8447 34.2559L16.0889 32.6934L15.9424 30.6426L15.8447 29.251L15.7959 29.2021C15.7959 28.9417 15.9505 28.3721 16.2598 27.4932L16.0889 26.9561C15.7308 26.0609 15.5518 25.4424 15.5518 25.1006V25.0518L15.6006 24.3438L15.3076 23.0986L15.3564 22.3906L15.0391 20.6084L14.9414 19.998L15.6982 18.5088C16.04 18.3135 16.2109 18.1263 16.2109 17.9473C16.2109 17.7845 16.1947 17.6543 16.1621 17.5566L14.7949 17.2881H14.3555L13.8428 17.2393L12.7441 16.7998L10.5469 16.9951L7.20215 16.6533L3.58887 16.8486L3.00293 16.751C2.59603 17.223 2.22982 17.459 1.9043 17.459H1.75781L1.0498 17.3613L0.341797 17.2393C0.358073 16.751 0.415039 16.4092 0.512695 16.2139C0.626628 16.0023 0.82194 15.7826 1.09863 15.5547L2.90527 14.1387C3.40983 13.9108 4.11784 13.7969 5.0293 13.7969H5.68848C5.88379 14.2689 6.15234 14.5049 6.49414 14.5049C6.81966 14.5049 7.20215 14.3177 7.6416 13.9434L8.74023 14.041L10.8887 14.749L12.6953 14.6514L14.1113 14.9932L16.9434 15.1396L18.1396 15.7988L18.7012 15.8477L18.75 15.6523L19.3604 15.7012C20.3857 15.7826 21.0205 15.8477 21.2646 15.8965C21.5251 15.9453 21.7855 16.0837 22.0459 16.3115L22.9004 16.5068L23.3398 16.1895L24.1455 16.1406L25.1953 15.7012L27.002 15.75L28.1982 15.5059C28.7028 15.6686 29.1178 15.75 29.4434 15.75C31.0221 15.75 32.5439 15.3838 34.0088 14.6514L34.3018 14.7979L34.4482 15.3594ZM60.3271 41.9951C60.3271 42.2067 60.2865 42.3939 60.2051 42.5566L59.7168 43.4111L58.5693 45.3887L57.5195 45.4619L56.8604 45.999C56.7139 46.1455 56.4616 46.2432 56.1035 46.292L51.709 47.1465L51.0254 47.3906L49.4629 47.2441L47.2168 47.4395L44.6777 47.293H43.9697C43.6117 47.0163 43.3919 46.8535 43.3105 46.8047L40.918 45.9502L40.1123 45.1934L38.5254 44.0947L37.2559 42.4102L36.7676 41.9951C36.9629 41.6045 37.0605 41.2546 37.0605 40.9453C37.0605 40.8151 37.028 40.7174 36.9629 40.6523L36.3037 39.6025L36.1572 38.2109L36.1084 37.0879C36.1084 36.7135 36.1979 36.2171 36.377 35.5986C36.6536 34.6221 36.8815 34.0361 37.0605 33.8408L37.9639 32.6934L38.4277 31.6436L39.5752 30.5449L40.8203 28.9092L41.9189 28.2988L43.5059 27.2002L44.5557 26.4922L44.9219 26.248L45.6543 26.1016L47.876 25.3936L49.6094 25.1982L50.6592 24.7588L51.1719 24.71C52.002 24.71 52.7018 25.1576 53.2715 26.0527C53.5807 26.0202 53.8086 25.8493 53.9551 25.54L54.6143 26.1016L55.5176 26.5898L57.5684 28.5918C57.8288 28.9173 58.0241 29.2021 58.1543 29.4463C58.3008 29.6742 58.4391 29.9183 58.5693 30.1787C58.7158 30.4391 58.8379 30.724 58.9355 31.0332C59.0495 31.3424 59.2122 31.8145 59.4238 32.4492L59.6191 33.0596L59.375 33.1572L58.4229 32.9619L57.373 33.3037L56.5674 33.1572L55.6641 33.4014L53.9551 33.2061L52.3193 33.3037L50.6104 33.0107L47.8271 33.0596L46.46 33.0107L43.1641 33.4502L41.9678 33.4014L40.3076 33.8896L39.7217 34.0117L39.624 34.5977C39.5915 35.0046 39.5345 35.2812 39.4531 35.4277C39.3717 35.5742 39.1927 35.7451 38.916 35.9404L38.9648 36.4043C39.502 36.8112 39.7868 37.0635 39.8193 37.1611L40.4541 39.6514L40.7715 40.2617C40.6087 40.4245 40.5273 40.571 40.5273 40.7012C40.5273 40.7012 40.5273 40.7093 40.5273 40.7256C40.5436 40.7419 40.5599 40.7663 40.5762 40.7988L41.5039 41.0918L41.7236 41.7021C41.8864 42.2718 42.098 42.6217 42.3584 42.752L43.6768 43.2891L44.1162 44.2412C44.3441 44.3551 44.7103 44.4447 45.2148 44.5098L45.5566 45.1445L46.3135 45.2422L48.4131 45.999L50.1709 45.6572L54.8096 44.9004L55.8105 44.29L57.373 43.3379L58.667 41.6533C58.8949 41.3766 59.1634 41.2383 59.4727 41.2383C60.0423 41.2383 60.3271 41.4906 60.3271 41.9951ZM54.5654 30.4961C54.5654 30.2357 54.2643 29.6904 53.6621 28.8604L51.9775 27.6396L51.416 27.0537L50.6104 27.0049L48.7549 26.8584L48.3154 26.9561L47.2656 27.542L45.9229 27.8594L44.2139 28.4941L43.5547 28.7383L42.7734 29.9102C42.2852 30.252 42.0166 30.4635 41.9678 30.5449L41.8701 30.8379L44.873 31.0576L45.2148 31.0088L45.7764 30.8379L46.3135 30.96L47.7539 31.2529H47.8271L49.4629 30.96L49.9756 30.8379L50.3662 31.3994H50.9277L53.0762 30.96L53.9551 31.0576C54.362 31.0088 54.5654 30.8216 54.5654 30.4961ZM85.7666 45.291C85.7666 45.4049 85.555 45.6735 85.1318 46.0967L84.668 46.5605C84.3099 46.9349 83.9111 47.236 83.4717 47.4639C83.0485 47.6917 82.6986 47.8057 82.4219 47.8057C82.2917 47.8057 81.958 47.5046 81.4209 46.9023L78.7354 43.8994C78.6214 43.7855 78.304 43.1344 77.7832 41.9463H77.0752L76.123 41.0918C75.6348 40.5221 75.3011 40.1559 75.1221 39.9932C74.943 39.8304 74.6745 39.6514 74.3164 39.4561L73.8281 39.1387C73.6816 38.5527 73.3968 37.9749 72.9736 37.4053L72.29 37.7959L71.9238 38.748L70.9717 39.5537L70.0684 40.75C69.6289 41.3034 69.2464 41.6696 68.9209 41.8486L68.1885 42.2881L67.627 42.9473L65.8691 45.8037C65.5436 46.3083 65.0146 46.707 64.2822 47L64.0381 47.9033H63.3789C62.4837 47.9033 62.0361 47.5697 62.0361 46.9023C62.0361 46.5605 62.1989 46.2269 62.5244 45.9014L65.7715 42.8008L66.4307 42.2881L67.8711 40.3594L70.3857 37.7471L71.2891 36.7949L70.8252 36.1113L69.5801 34.793L69.2383 33.5479L68.2861 33.2549L67.0898 32.0098L65.8691 31.0576L65.6738 29.9102C65.5762 29.5684 65.3971 29.3975 65.1367 29.3975C64.9902 29.3975 64.8193 29.43 64.624 29.4951L64.2334 29.2021C63.4847 28.6325 62.972 28.2093 62.6953 27.9326C62.4349 27.6396 62.2152 27.3141 62.0361 26.9561L62.5732 26.3945C63.0778 25.89 63.4928 25.5563 63.8184 25.3936C64.1602 25.2145 64.6973 25.0843 65.4297 25.0029L65.625 24.8076H65.8691L66.2354 25.2471L67.1875 26.3457L68.2861 27.9082C68.6117 28.1849 68.7744 28.429 68.7744 28.6406V28.8604C69.0999 29.2835 69.3359 29.5439 69.4824 29.6416C69.6289 29.7393 69.8568 29.7881 70.166 29.7881L71.0693 30.9111C72.0133 31.7738 72.4854 32.3353 72.4854 32.5957L72.4365 33.3525L72.3877 33.4014C72.3877 33.5316 72.5016 33.7188 72.7295 33.9629C72.9736 34.1908 73.1934 34.3047 73.3887 34.3047C73.6979 34.3047 74.0641 34.0036 74.4873 33.4014L74.9756 32.6934C75.4476 32.6771 75.7731 32.6038 75.9521 32.4736C76.1312 32.3434 76.3102 32.0342 76.4893 31.5459L76.3184 31.1064L76.7334 30.7402C77.6286 30.0078 78.0924 29.5439 78.125 29.3486L78.3203 28.2988L79.0771 27.3467L80.1758 25.8086L80.8838 25.3447C81.3883 24.9541 81.8359 24.7588 82.2266 24.7588C82.6009 24.7588 82.7881 24.9704 82.7881 25.3936C82.7881 25.5889 82.7474 25.7435 82.666 25.8574L81.4209 27.542L80.5664 28.8604L79.3701 30.1543L77.0752 32.791L74.9268 35.1104L74.6826 35.8428C75.1058 35.8753 75.3988 35.9404 75.5615 36.0381C75.7243 36.1195 75.9115 36.3229 76.123 36.6484L76.6846 36.7461L77.1729 37.2588L78.8818 39.0898C79.1748 39.4479 79.6061 39.8141 80.1758 40.1885C80.7454 40.6117 81.0303 40.929 81.0303 41.1406C81.0303 41.2546 80.9652 41.3766 80.835 41.5068L80.9814 41.7021C81.3883 41.7021 81.7057 41.8486 81.9336 42.1416C82.3242 42.1416 82.5928 42.1823 82.7393 42.2637C82.8857 42.3451 83.0973 42.5566 83.374 42.8984C83.6182 43.1914 83.9355 43.4762 84.3262 43.7529C85.2865 44.404 85.7666 44.9167 85.7666 45.291ZM104.443 25.7109L104.199 26.3945L104.15 26.9072L102.393 28.2012L101.343 29.1533L100.732 29.251L99.8291 29.1533C99.2269 29.0882 98.6735 28.9987 98.1689 28.8848C97.6807 28.7546 97.4528 28.6895 97.4854 28.6895H97.4365L95.8008 28.8115L94.8486 28.6406C94.6208 28.6732 94.4255 28.7627 94.2627 28.9092C94.1162 29.0394 94.043 29.1859 94.043 29.3486C94.043 29.5277 94.1406 29.6416 94.3359 29.6904L94.2871 32.8398C93.5872 33.0352 93.2373 33.3363 93.2373 33.7432L93.2861 34.3047L94.2871 34.5L94.3848 36.8438L94.4336 37.3564L94.1895 38.0889C93.9941 37.9912 93.8314 37.9424 93.7012 37.9424C93.2943 37.9424 93.0908 38.1296 93.0908 38.5039C93.0908 38.6667 93.221 38.9189 93.4814 39.2607C93.7093 38.984 93.8639 38.8457 93.9453 38.8457C93.9941 38.8457 94.1569 38.9678 94.4336 39.2119L94.4824 42.5078L94.5801 42.9961L95.1416 44.1436C95.1742 44.2412 95.1904 44.526 95.1904 44.998C95.5973 45.2422 95.9066 45.3968 96.1182 45.4619C96.346 45.527 96.6553 45.5596 97.0459 45.5596C97.5667 45.5596 98.0794 45.4701 98.584 45.291C99.1048 45.112 99.5199 44.8841 99.8291 44.6074L102.246 42.4102C102.344 42.2962 102.474 42.2393 102.637 42.2393C102.832 42.2393 103.117 42.3451 103.491 42.5566L103.345 43.0938C103.003 44.4447 102.718 45.1608 102.49 45.2422L96.7529 47.3418L95.752 47.8545L94.9951 47.3906L94.4824 47.293L94.2383 47.9521L93.7988 48.001C93.3105 48.001 92.7409 47.765 92.0898 47.293C91.4062 46.7396 91.04 46.3245 90.9912 46.0479L90.8447 45.3398L90.5518 44.5098L90.6006 43.1426V41.6045L91.0889 39.9932L90.9424 39.4072L90.8447 38.5527V37.9912L90.9424 35.6475L90.8936 34.9883L90.7959 34.1582C90.7959 34.0931 90.8122 34.0605 90.8447 34.0605L91.4795 33.3037C91.5609 33.1898 91.6016 33.0921 91.6016 33.0107C91.6016 32.6364 91.3167 32.4492 90.7471 32.4492L90.5518 32.1562C90.7145 30.9681 90.7959 29.7799 90.7959 28.5918C90.0146 28.429 89.4287 28.3477 89.0381 28.3477C88.029 28.3477 87.0117 28.5186 85.9863 28.8604C85.8561 28.7464 85.791 28.6243 85.791 28.4941C85.791 28.2174 85.8561 28.0384 85.9863 27.957L86.9385 27.1514L87.085 26.5898C87.1338 26.4596 87.2152 26.3538 87.3291 26.2725C87.443 26.1911 87.5326 26.1504 87.5977 26.1504L90.4297 26.0527L91.0889 25.9551L91.04 25.3936L90.8936 20.1934L90.2832 18.8018L90.1367 18.0449C90.625 17.3613 91.1133 16.873 91.6016 16.5801C92.0898 16.2871 92.7165 16.0755 93.4814 15.9453C93.807 15.4408 94.0918 15.1885 94.3359 15.1885C94.7754 15.1885 94.9951 15.929 94.9951 17.4102C94.9951 19.6562 94.7917 21.2513 94.3848 22.1953C94.1569 22.8626 93.929 23.1963 93.7012 23.1963V24.3438C93.9453 24.3438 94.1081 24.3682 94.1895 24.417C94.2708 24.4495 94.3685 24.5472 94.4824 24.71L94.3359 25.3936L94.4336 25.9551L94.9463 26.0039L97.3877 26.541C97.583 26.6061 97.8516 26.6387 98.1934 26.6387C98.5514 26.6387 98.8037 26.6061 98.9502 26.541L99.9023 26.248L101.733 26.0527L103.149 25.54H103.638H103.833H104.395C104.427 25.6702 104.443 25.7272 104.443 25.7109Z" fill="black"/>
<path d="M74.5908 46.6698C74.5908 47.0604 74.5094 47.5243 74.3467 48.0614L73.3457 48.0126L73.0039 48.1591L73.1016 48.8182C73.4596 49.0135 73.6387 49.3147 73.6387 49.7216C73.6387 50.3889 73.5736 50.8202 73.4434 51.0155L72.1494 52.7245L71.71 53.4569L70.7578 54.4579L69.8057 55.3612L69.293 55.6298L65.46 58.12L63.5557 58.7303C63.0999 58.9257 62.75 59.0233 62.5059 59.0233C62.4408 59.0233 62.2699 58.9745 61.9932 58.8768C61.5212 59.1372 60.9759 59.2675 60.3574 59.2675L59.21 59.2186H56.9883L56.207 59.0233L53.3018 58.828L51.6904 57.9247L51.0068 58.0712L51.2998 58.3153L50.5918 58.2177L49.9082 58.12L48.0039 56.7284L46.71 56.5575L45.3428 55.7274C44.7731 55.3205 44.4883 55.0357 44.4883 54.8729C44.4883 54.5474 44.6185 54.1486 44.8789 53.6766C45.1393 53.1884 45.4486 52.7489 45.8066 52.3583C46.2624 51.8212 46.7751 51.5119 47.3447 51.4305L47.7109 53.2616C48.0527 53.4244 48.2725 53.5627 48.3701 53.6766C48.4678 53.7906 48.5573 54.0184 48.6387 54.3602L49.2002 54.2626L49.6885 54.58L50.1035 55.1659L51.7393 55.6298L53.3994 56.3622L56.7441 57.0702C57.3138 57.4283 57.6475 57.6073 57.7451 57.6073C57.973 57.6073 58.1113 57.4445 58.1602 57.119L58.502 57.0702L61.5537 57.2655L62.5059 56.7772L63.043 56.9725L63.9463 56.7772L64.9961 56.411C65.582 56.2157 65.9971 55.9553 66.2412 55.6298L66.9492 54.6776L67.8037 53.7743C67.9339 53.5464 68.0641 53.1639 68.1943 52.6268C68.8291 52.6268 69.1465 52.4234 69.1465 52.0165L69.0488 51.5282L69 50.9178L69.3906 50.4784L70.1475 48.2079H70.3916L70.2939 46.7675L69.8057 45.4247L69.6104 44.8632L68.9023 44.8143L67.0957 43.7157L64.8984 42.8612L64.4102 42.3241L63.7021 41.9091L63.1895 42.1776L63.043 42.4218L59.6982 42.2753L58.9414 41.3719L58.3555 42.1288L57.7939 42.0067L56.4023 41.7137C55.4746 41.5347 54.7585 41.3719 54.2539 41.2255C53.7656 41.0627 53.3506 40.8593 53.0088 40.6151L53.0576 40.078L52.2031 39.7118C52.2194 39.7118 52.0811 39.7443 51.7881 39.8094C51.2021 39.37 50.8197 39.0282 50.6406 38.7841C50.4779 38.5236 50.2826 38.0191 50.0547 37.2704L50.25 37.2216L49.7617 36.66L49.6885 35.8788L49.5908 35.0731V34.829L49.9082 33.828L50.2012 33.2665L50.4941 32.5096L51.2998 31.9237C51.6742 31.647 51.8613 31.175 51.8613 30.5077L52.3008 30.1659L54.9619 28.1639L56.1094 27.4803L57.9893 26.5282L60.6016 25.6737L61.2119 25.4784L61.8467 25.3807L63.3604 25.2098L64.0928 24.9169L66.5586 25.2098L67.6572 25.161L68.3408 25.4296L69.5615 25.7225C70.3916 25.9341 70.8066 26.2027 70.8066 26.5282C70.8066 26.6584 70.7904 26.7723 70.7578 26.87C70.4323 26.9839 70.2614 27.049 70.2451 27.0653L69.6104 27.6268C69.2197 27.9035 68.5687 28.1639 67.6572 28.4081L67.1445 28.1151L65.8506 27.163L65.1426 27.0653L63.1406 26.6747L61.9932 26.7235L60.6504 26.7723L58.2578 28.0175L56.5488 28.8719L55.4014 29.7753L54.8398 30.41L53.79 32.2655L52.8379 32.9247L52.6426 33.5106L53.3018 33.8768C53.2367 34.0396 53.2041 34.2186 53.2041 34.4139C53.2041 34.5767 53.2855 34.8453 53.4482 35.2196L52.4961 35.7079L52.7402 36.2694L53.2529 36.4647L54.1562 36.6112L55.1084 37.4169L57.1104 38.3202L57.6475 38.8085L59.3564 38.662L60.8457 38.8085L60.9434 39.1259L61.5537 39.0282L62.4082 38.9305C62.571 38.9305 62.6849 38.9468 62.75 38.9794L64.0439 39.2723L64.7031 39.4188C64.8171 40.1838 65.0286 40.5663 65.3379 40.5663C65.3704 40.55 65.3949 40.5419 65.4111 40.5419C65.4437 40.5256 65.4762 40.5175 65.5088 40.5175L66.6074 39.8094L67.9014 39.9071L68.8535 39.8583C69.3743 39.8583 69.8708 40.0617 70.3428 40.4686L71.5879 41.5673C71.6042 41.5673 71.6204 41.5673 71.6367 41.5673C71.6693 41.5673 71.7344 41.5673 71.832 41.5673C71.946 41.551 72.0355 41.5347 72.1006 41.5184H72.1494C72.3773 41.5184 72.9469 42.0881 73.8584 43.2274L74.249 43.7157L74.3467 44.3749L74.5908 46.6698ZM100.909 53.0175L100.079 55.3124V55.41L100.177 55.7762L100.665 56.3622L100.47 57.6805L100.567 59.5604L100.323 60.1708L100.372 62.7587L100.006 63.6132L99.7617 64.8094L99.3711 65.6151L99.4199 66.8602L98.5654 68.9598L98.3701 69.5214L97.6621 69.9608L95.8066 72.329L94.708 73.9647C94.3011 74.5995 93.8861 75.0145 93.4629 75.2098L92.8281 75.576L92.2178 76.2108L91.4609 76.6747L91.0215 77.0653L89.9717 77.3583C89.9554 77.3583 89.4346 77.5943 88.4092 78.0663L86.8711 78.6278L84.6738 79.2626L82.3789 79.0184L81.1582 78.8719C80.5723 78.8231 80.0758 78.6848 79.6689 78.4569L78.0088 77.4071L77.1787 77.2118L76.5195 76.3085L75.2256 75.5272C74.9163 75.2668 74.7617 74.8111 74.7617 74.16C74.7617 73.4764 74.9977 72.8254 75.4697 72.2069C75.6162 72.0279 75.9336 71.9139 76.4219 71.8651L76.7148 72.5731L76.959 73.2567L77.9111 74.5751L78.8633 76.0643C79.2051 76.4061 79.4574 76.577 79.6201 76.577H79.6689L80.0107 76.5282L82.0615 77.3583L83.7705 77.4803C83.9821 77.6431 84.1937 77.7245 84.4053 77.7245C84.568 77.7245 84.7878 77.6187 85.0645 77.4071L85.626 77.4803C86.3096 77.4803 87.2861 77.1955 88.5557 76.6259C89.6787 76.0725 90.3623 75.6574 90.6064 75.3807L92.4619 73.4764L93.6094 72.7684C94.0326 72.4429 94.3825 71.8407 94.6592 70.9618L95.2695 68.9598L96.1729 67.5682L96.0264 66.5184L96.4658 64.5653L96.5146 62.5634C96.5146 61.8798 96.6693 61.1962 96.9785 60.5126L97.3691 59.1698L97.0762 58.0223L96.8076 54.6288L96.7588 54.0673V53.8231L97.1738 52.5292L96.9053 52.163L96.1729 52.5292L95.3184 53.0175L94.6104 53.7743L92.2666 55.2635L91.0703 56.411L89.2148 57.7782C88.694 58.1363 88.2952 58.3641 88.0186 58.4618L86.4072 58.7303L85.5283 59.0721C85.1702 59.1698 84.9017 59.2186 84.7227 59.2186C84.0879 59.2186 83.2415 59.0152 82.1836 58.6083C81.1257 58.2014 80.4014 57.7863 80.0107 57.3632C79.376 56.7284 79.0586 55.9146 79.0586 54.9218L79.1074 54.4091C79.4492 54.1812 79.6201 53.9696 79.6201 53.7743C79.6201 53.7417 79.612 53.7173 79.5957 53.701C79.5957 53.6685 79.5876 53.6441 79.5713 53.6278L79.0586 52.9198L79.0098 52.2118L79.1562 51.577L80.1084 49.3798L79.9131 48.5253V48.2079C79.9131 48.0288 79.9782 47.6301 80.1084 47.0116L80.5723 45.2294C80.6699 44.8062 80.7513 44.3993 80.8164 44.0087L80.8652 42.1288L81.3291 40.2245C81.3291 39.9966 81.207 39.7118 80.9629 39.37L80.2793 39.2723L80.2061 38.8573L81.1094 37.8075L81.6709 37.6122L82.5254 37.368L84.9668 35.9764H85.1133C85.3574 35.9764 85.5527 36.0741 85.6992 36.2694C85.8457 36.4647 85.9189 36.717 85.9189 37.0262V37.1727L85.1621 39.0282L84.8203 40.8593L84.21 43.6669L84.0635 45.327C83.9821 45.5712 83.8519 45.7177 83.6729 45.7665L82.916 45.9618C82.6556 46.0594 82.5254 46.2466 82.5254 46.5233C82.5254 46.9139 82.859 47.1093 83.5264 47.1093L82.8184 52.163L82.623 53.6278L82.7695 54.0184L83.1113 54.4579L83.8193 55.6298L85.2109 56.1669L85.8701 56.9237L86.2119 57.0702H86.4072L87.2129 56.5087L89.5566 55.7274L90.5576 55.0194L92.2666 53.8231L93.8779 52.2606L94.9277 51.6259L95.3672 51.3573L96.2705 49.0135L96.417 48.9159L96.5146 48.4764L97.0273 47.8661L96.8076 46.5233L97.0273 46.1571L96.9053 45.1073L97.0762 44.5702L96.6611 42.4218L96.4658 39.4677L95.7578 38.0272C95.7253 37.9621 95.709 37.8563 95.709 37.7098V37.3192L96.7588 36.9774L97.5156 36.2694L98.9561 36.0741L99.5176 35.9276C99.9896 36.2531 100.226 36.5298 100.226 36.7577V36.8798L100.079 37.7587L100.177 39.5165L99.957 40.2245V40.8593L99.6641 41.9579L99.7129 42.3241C99.957 42.91 100.144 43.3495 100.274 43.6425C100.405 43.9354 100.47 44.1633 100.47 44.326V44.9608L100.567 46.5233L100.226 47.3778C100.16 47.5731 100.128 47.7196 100.128 47.8173C100.128 48.273 100.388 48.7369 100.909 49.2089L100.86 49.8192L100.909 53.0175ZM128.424 56.5087L128.18 57.2167L124.811 58.828C124.355 58.2421 124.127 57.8759 124.127 57.7294V57.6073L124.713 55.2635L124.762 54.2137L124.957 54.2626L125.372 53.7743C125.258 53.5139 125.144 53.343 125.03 53.2616C124.933 53.1802 124.745 53.0826 124.469 52.9686L124.371 52.578L124.762 48.0126L124.518 47.3778L124.566 46.5721V44.7167L124.859 43.8134L124.42 43.3739L124.469 41.9091C124.29 41.3719 123.989 40.8593 123.565 40.371V40.1268C123.565 39.9152 123.5 39.7606 123.37 39.663L122.76 39.6141L121.515 38.8573L119.513 38.9794L117.218 38.8085C117.022 38.9061 116.803 39.1096 116.559 39.4188L116.119 39.3212L114.215 39.663L113.531 39.8094L112.677 40.4686L111.578 40.9569C111.041 41.2173 110.74 41.608 110.675 42.1288L110.626 44.5214L110.309 46.0106L110.821 47.4755V48.2567L110.772 51.162L110.309 52.163L110.26 52.5292V52.6757L110.724 53.4569L110.87 56.118L111.065 56.9725C111.065 57.0702 111.017 57.2004 110.919 57.3632C110.821 57.5096 110.691 57.6154 110.528 57.6805L108.917 58.0712L108.478 58.1688C108.217 58.6083 107.965 58.828 107.721 58.828C107.558 58.828 107.387 58.7385 107.208 58.5594C107.192 58.5269 107.167 58.4943 107.135 58.4618C107.118 58.4292 107.094 58.3967 107.062 58.3641C106.996 58.2339 106.964 58.1851 106.964 58.2177L107.33 56.411L107.281 54.3602L107.525 53.5302L107.33 52.163L107.428 50.6737L107.477 47.5243C107.477 47.1011 107.761 46.8651 108.331 46.8163C108.282 46.4582 108.193 46.2385 108.062 46.1571C107.949 46.0594 107.688 46.0106 107.281 46.0106L107.33 41.6161L107.867 41.2743L107.574 40.7616L106.915 38.9794L106.476 38.4178L106.769 37.8807L107.281 37.2704L108.16 36.8798L109.015 36.2206C109.259 36.0253 109.56 35.9276 109.918 35.9276C110.13 35.9276 110.333 35.9927 110.528 36.1229C110.724 36.2369 110.838 36.3671 110.87 36.5135L110.919 38.8085L111.017 39.5653L111.48 39.4188C112.066 38.7027 112.75 38.0354 113.531 37.4169C114.329 36.7821 114.923 36.4647 115.313 36.4647C115.525 36.4647 115.696 36.6356 115.826 36.9774C116.152 36.8798 116.534 36.6926 116.974 36.4159C117.446 36.1555 117.844 36.0253 118.17 36.0253H118.316L120.318 36.2206L121.075 35.9764L123.321 36.2694C124.086 36.3671 124.688 36.6356 125.128 37.0751L125.47 37.0262C125.991 37.0262 126.422 37.2541 126.764 37.7098L127.13 38.3202L127.618 39.1259C127.846 39.4025 127.96 39.9966 127.96 40.9081V42.2753L128.058 42.8612L127.472 43.618L127.667 44.2284L127.96 44.7655V45.327V45.7665C127.96 45.8967 127.944 45.9943 127.911 46.0594L127.569 46.7675C127.504 46.8977 127.472 47.1337 127.472 47.4755L127.96 48.1102L127.911 48.8182L127.862 50.5272V50.7225L128.229 51.6747L128.277 53.8719L128.424 56.5087ZM149.713 36.8798L149.469 37.5634L149.42 38.076L147.662 39.37L146.612 40.3221L146.002 40.4198L145.099 40.3221C144.496 40.257 143.943 40.1675 143.438 40.0536C142.95 39.9234 142.722 39.8583 142.755 39.8583H142.706L141.07 39.9803L140.118 39.8094C139.89 39.842 139.695 39.9315 139.532 40.078C139.386 40.2082 139.312 40.3547 139.312 40.5175C139.312 40.6965 139.41 40.8104 139.605 40.8593L139.557 44.0087C138.857 44.204 138.507 44.5051 138.507 44.912L138.556 45.4735L139.557 45.6688L139.654 48.0126L139.703 48.5253L139.459 49.2577C139.264 49.16 139.101 49.1112 138.971 49.1112C138.564 49.1112 138.36 49.2984 138.36 49.6727C138.36 49.8355 138.491 50.0878 138.751 50.4296C138.979 50.1529 139.133 50.0145 139.215 50.0145C139.264 50.0145 139.426 50.1366 139.703 50.3807L139.752 53.6766L139.85 54.1649L140.411 55.3124C140.444 55.41 140.46 55.6949 140.46 56.1669C140.867 56.411 141.176 56.5656 141.388 56.6307C141.616 56.6958 141.925 56.7284 142.315 56.7284C142.836 56.7284 143.349 56.6389 143.854 56.4598C144.374 56.2808 144.789 56.0529 145.099 55.7762L147.516 53.579C147.613 53.465 147.743 53.4081 147.906 53.4081C148.102 53.4081 148.386 53.5139 148.761 53.7255L148.614 54.2626C148.272 55.6135 147.988 56.3296 147.76 56.411L142.022 58.5106L141.021 59.0233L140.265 58.5594L139.752 58.4618L139.508 59.121L139.068 59.1698C138.58 59.1698 138.01 58.9338 137.359 58.4618C136.676 57.9084 136.31 57.4934 136.261 57.2167L136.114 56.5087L135.821 55.6786L135.87 54.3114V52.7733L136.358 51.162L136.212 50.576L136.114 49.7216V49.16L136.212 46.8163L136.163 46.1571L136.065 45.327C136.065 45.2619 136.082 45.2294 136.114 45.2294L136.749 44.4725C136.83 44.3586 136.871 44.2609 136.871 44.1796C136.871 43.8052 136.586 43.618 136.017 43.618L135.821 43.3251C135.984 42.1369 136.065 40.9488 136.065 39.7606C135.284 39.5979 134.698 39.5165 134.308 39.5165C133.299 39.5165 132.281 39.6874 131.256 40.0292C131.126 39.9152 131.061 39.7932 131.061 39.663C131.061 39.3863 131.126 39.2072 131.256 39.1259L132.208 38.3202L132.354 37.7587C132.403 37.6285 132.485 37.5227 132.599 37.4413C132.713 37.3599 132.802 37.3192 132.867 37.3192L135.699 37.2216L136.358 37.1239L136.31 36.5624L136.163 31.3622L135.553 29.9706L135.406 29.2137C135.895 28.5302 136.383 28.0419 136.871 27.7489C137.359 27.4559 137.986 27.2443 138.751 27.1141C139.076 26.6096 139.361 26.3573 139.605 26.3573C140.045 26.3573 140.265 27.0979 140.265 28.579C140.265 30.8251 140.061 32.4201 139.654 33.3641C139.426 34.0315 139.199 34.3651 138.971 34.3651V35.5126C139.215 35.5126 139.378 35.537 139.459 35.5858C139.54 35.6184 139.638 35.716 139.752 35.8788L139.605 36.5624L139.703 37.1239L140.216 37.1727L142.657 37.7098C142.853 37.7749 143.121 37.8075 143.463 37.8075C143.821 37.8075 144.073 37.7749 144.22 37.7098L145.172 37.4169L147.003 37.2216L148.419 36.7089H148.907H149.103H149.664C149.697 36.8391 149.713 36.896 149.713 36.8798ZM174.566 41.6649L174.518 43.2762C174.501 43.911 174.461 44.3098 174.396 44.4725C174.347 44.6353 174.16 44.8876 173.834 45.2294L174.225 46.1571L173.565 47.1581L174.273 47.8661V51.9188L173.834 52.4071L173.932 53.1639L174.225 54.9706L174.176 56.5575V57.119C174.176 57.5747 173.858 57.827 173.224 57.8759L172.564 57.9247L171.075 58.7303L170.587 59.0233L169.586 58.1688L169.732 57.5096L170.636 54.8241L170.27 52.8221L170.831 50.6249C170.929 50.1529 170.978 49.5181 170.978 48.7206C170.571 48.5415 170.367 48.2893 170.367 47.9637C170.367 47.5568 170.473 47.0441 170.685 46.4257C170.815 46.0188 170.88 45.5793 170.88 45.1073V44.912L170.685 43.0809L170.929 42.1288L170.685 41.6649L170.318 40.8593C170.204 40.5826 170.058 40.4198 169.879 40.371L168.976 40.078L167.633 39.3212L166.729 39.37L165.216 39.1747L163.214 39.2235L162.164 39.2723C161.66 39.37 161.196 39.5165 160.772 39.7118L159.479 40.4686L158.429 40.8593L157.818 41.4208L157.037 42.3241L156.524 42.9589L156.866 44.4725L156.573 48.2079L156.622 48.4764L156.28 48.3788L156.134 48.5741H155.816L155.914 49.0624L156.622 50.0145C156.655 50.0145 156.671 50.0308 156.671 50.0634L156.866 52.163L156.964 53.3104L157.086 54.0673V54.3602L156.866 54.8241L156.964 57.0702L156.622 57.7294L156.378 57.6805L156.134 57.7294L155.67 57.9735C155.572 58.0061 155.361 58.0223 155.035 58.0223L154.571 58.413C154.034 58.885 153.619 59.1535 153.326 59.2186L153.082 58.6571L152.936 58.5594L152.984 57.6073L153.277 56.5087V55.5077L153.814 54.6288L153.937 54.0673C153.562 53.5627 153.375 53.1965 153.375 52.9686L153.668 45.7177L153.57 43.4716L154.571 41.7137L154.474 41.1766L154.132 41.5184C153.888 41.2743 153.733 41.0627 153.668 40.8837C153.603 40.7046 153.57 40.4198 153.57 40.0292V34.4139L153.717 33.5106H154.034L154.522 33.0223C154.262 32.8759 154.132 32.591 154.132 32.1678C153.709 31.94 153.473 31.7203 153.424 31.5087V29.6288L153.229 26.7723L153.521 26.0155L153.619 25.5272L153.082 24.8192L153.131 24.2577L153.229 23.6229L153.424 23.0614L153.57 22.5243C153.147 21.9546 152.936 21.6047 152.936 21.4745L152.984 16.7626L152.423 14.4677V13.9794L151.837 13.5155C151.918 13.2225 152.13 12.9703 152.472 12.7587L154.425 11.7577C155.19 11.3671 155.743 11.1718 156.085 11.1718C156.59 11.1718 156.866 11.302 156.915 11.5624L156.72 13.2714L156.671 16.4208C156.671 16.9091 156.524 17.2427 156.231 17.4218L155.67 17.7147C155.442 17.8287 155.328 18.0484 155.328 18.3739C155.328 18.4553 155.361 18.7401 155.426 19.2284L155.719 19.2772C156.012 18.9843 156.345 18.8134 156.72 18.7645V19.2284L156.476 23.7694L156.524 25.2098L155.914 26.4305V26.9677C156.451 27.5861 156.72 28.0337 156.72 28.3104V28.4569L156.378 29.0673V29.1161L156.622 31.1669L156.72 31.4598L156.671 31.7772L156.427 32.5096L156.671 33.5594L156.573 34.4628L156.72 35.0731L156.427 39.1259L156.476 39.4677L156.72 39.6141L160.431 36.8309L160.821 37.0262L162.384 36.4159L163.336 36.2206L164.483 36.0741C164.939 36.1229 165.224 36.4566 165.338 37.0751H165.924L166.437 36.7089L166.974 36.1718L168.072 36.3182L170.929 36.5135L172.32 37.8807L173.126 38.369L173.517 39.0282L172.931 39.37C173.207 39.5328 173.403 39.6141 173.517 39.6141L173.883 39.5165C174.339 40.0699 174.566 40.786 174.566 41.6649Z" fill="black"/>
</svg>
